<svg xmlns="http://www.w3.org/2000/svg" xmlns:xlink="http://www.w3.org/1999/xlink" style="margin:auto;background:#0d0e0e;display:block;z-index:1;position:relative" width="1084" height="322" preserveAspectRatio="xMidYMid" viewBox="0 0 1084 322">
<defs>
  <pattern id="pid-0.11966168867424565" x="0" y="0" width="768" height="768" patternUnits="userSpaceOnUse">
    <g transform="scale(3)"><defs>
  <filter id="pat-0.15112289242329924" x="-100%" y="-100%" width="300%" height="300%" color-interpolation-filters="sRGB">
    <feGaussianBlur in="SourceGraphic" stdDeviation="5.71"></feGaussianBlur>
    <feComponentTransfer result="cutoff">
      <feFuncA type="linear" slope="60" intercept="-40"></feFuncA>
    </feComponentTransfer>
  </filter>
</defs><g style="isolation:isolate" filter="url(#pat-0.15112289242329924)"><g>
  <circle cx="-194.57409603856547" cy="-42.520727310196776" r="56.15231653975106" fill="#c95729"></circle> <circle cx="61.42590396143453" cy="-42.520727310196776" r="56.15231653975106" fill="#c95729"></circle> <circle cx="317.4259039614345" cy="-42.520727310196776" r="56.15231653975106" fill="#c95729"></circle> <circle cx="-194.57409603856547" cy="213.47927268980322" r="56.15231653975106" fill="#c95729"></circle> <circle cx="61.42590396143453" cy="213.47927268980322" r="56.15231653975106" fill="#c95729"></circle> <circle cx="317.4259039614345" cy="213.47927268980322" r="56.15231653975106" fill="#c95729"></circle> <circle cx="-194.57409603856547" cy="469.4792726898032" r="56.15231653975106" fill="#c95729"></circle> <circle cx="61.42590396143453" cy="469.4792726898032" r="56.15231653975106" fill="#c95729"></circle> <circle cx="317.4259039614345" cy="469.4792726898032" r="56.15231653975106" fill="#c95729"></circle> <circle cx="-194.57409603856547" cy="725.4792726898032" r="56.15231653975106" fill="#c95729"></circle> <circle cx="61.42590396143453" cy="725.4792726898032" r="56.15231653975106" fill="#c95729"></circle> <circle cx="317.4259039614345" cy="725.4792726898032" r="56.15231653975106" fill="#c95729"></circle> <circle cx="-41.401058613455746" cy="149.7169331908542" r="16.431735281740615" fill="#c95729"></circle> <circle cx="214.59894138654425" cy="149.7169331908542" r="16.431735281740615" fill="#c95729"></circle> <circle cx="470.59894138654425" cy="149.7169331908542" r="16.431735281740615" fill="#c95729"></circle> <circle cx="-41.401058613455746" cy="405.7169331908542" r="16.431735281740615" fill="#c95729"></circle> <circle cx="214.59894138654425" cy="405.7169331908542" r="16.431735281740615" fill="#c95729"></circle> <circle cx="470.59894138654425" cy="405.7169331908542" r="16.431735281740615" fill="#c95729"></circle> <circle cx="-41.401058613455746" cy="661.7169331908542" r="16.431735281740615" fill="#c95729"></circle> <circle cx="214.59894138654425" cy="661.7169331908542" r="16.431735281740615" fill="#c95729"></circle> <circle cx="470.59894138654425" cy="661.7169331908542" r="16.431735281740615" fill="#c95729"></circle> <circle cx="-157.0617915836214" cy="5.665839659791743" r="45.89970229212439" fill="#c95729"></circle> <circle cx="98.93820841637859" cy="5.665839659791743" r="45.89970229212439" fill="#c95729"></circle> <circle cx="354.9382084163786" cy="5.665839659791743" r="45.89970229212439" fill="#c95729"></circle> <circle cx="-157.0617915836214" cy="261.66583965979174" r="45.89970229212439" fill="#c95729"></circle> <circle cx="98.93820841637859" cy="261.66583965979174" r="45.89970229212439" fill="#c95729"></circle> <circle cx="354.9382084163786" cy="261.66583965979174" r="45.89970229212439" fill="#c95729"></circle> <circle cx="-157.0617915836214" cy="517.6658396597918" r="45.89970229212439" fill="#c95729"></circle> <circle cx="98.93820841637859" cy="517.6658396597918" r="45.89970229212439" fill="#c95729"></circle> <circle cx="354.9382084163786" cy="517.6658396597918" r="45.89970229212439" fill="#c95729"></circle> <circle cx="-119.15764698855094" cy="119.26627385013228" r="62.61718081063461" fill="#c95729"></circle> <circle cx="136.84235301144906" cy="119.26627385013228" r="62.61718081063461" fill="#c95729"></circle> <circle cx="392.84235301144906" cy="119.26627385013228" r="62.61718081063461" fill="#c95729"></circle> <circle cx="-119.15764698855094" cy="375.2662738501323" r="62.61718081063461" fill="#c95729"></circle> <circle cx="136.84235301144906" cy="375.2662738501323" r="62.61718081063461" fill="#c95729"></circle> <circle cx="392.84235301144906" cy="375.2662738501323" r="62.61718081063461" fill="#c95729"></circle> <circle cx="-119.15764698855094" cy="631.2662738501323" r="62.61718081063461" fill="#c95729"></circle> <circle cx="136.84235301144906" cy="631.2662738501323" r="62.61718081063461" fill="#c95729"></circle> <circle cx="392.84235301144906" cy="631.2662738501323" r="62.61718081063461" fill="#c95729"></circle> 
  <animateTransform attributeName="transform" type="translate" dur="33.333333333333336s" repeatCount="indefinite" keyTimes="0;1" values="0 0;0 -256"></animateTransform>
</g><g>
  <circle cx="-135.51082124050401" cy="-8.060904226977414" r="56.46556230608369" fill="#8eabb7"></circle> <circle cx="120.48917875949599" cy="-8.060904226977414" r="56.46556230608369" fill="#8eabb7"></circle> <circle cx="376.489178759496" cy="-8.060904226977414" r="56.46556230608369" fill="#8eabb7"></circle> <circle cx="-135.51082124050401" cy="247.9390957730226" r="56.46556230608369" fill="#8eabb7"></circle> <circle cx="120.48917875949599" cy="247.9390957730226" r="56.46556230608369" fill="#8eabb7"></circle> <circle cx="376.489178759496" cy="247.9390957730226" r="56.46556230608369" fill="#8eabb7"></circle> <circle cx="-135.51082124050401" cy="503.9390957730226" r="56.46556230608369" fill="#8eabb7"></circle> <circle cx="120.48917875949599" cy="503.9390957730226" r="56.46556230608369" fill="#8eabb7"></circle> <circle cx="376.489178759496" cy="503.9390957730226" r="56.46556230608369" fill="#8eabb7"></circle> <circle cx="-135.51082124050401" cy="759.9390957730226" r="56.46556230608369" fill="#8eabb7"></circle> <circle cx="120.48917875949599" cy="759.9390957730226" r="56.46556230608369" fill="#8eabb7"></circle> <circle cx="376.489178759496" cy="759.9390957730226" r="56.46556230608369" fill="#8eabb7"></circle> <circle cx="-96.67525765240867" cy="118.5877317640622" r="12.039536688851136" fill="#8eabb7"></circle> <circle cx="159.32474234759133" cy="118.5877317640622" r="12.039536688851136" fill="#8eabb7"></circle> <circle cx="415.3247423475913" cy="118.5877317640622" r="12.039536688851136" fill="#8eabb7"></circle> <circle cx="-96.67525765240867" cy="374.5877317640622" r="12.039536688851136" fill="#8eabb7"></circle> <circle cx="159.32474234759133" cy="374.5877317640622" r="12.039536688851136" fill="#8eabb7"></circle> <circle cx="415.3247423475913" cy="374.5877317640622" r="12.039536688851136" fill="#8eabb7"></circle> <circle cx="-96.67525765240867" cy="630.5877317640623" r="12.039536688851136" fill="#8eabb7"></circle> <circle cx="159.32474234759133" cy="630.5877317640623" r="12.039536688851136" fill="#8eabb7"></circle> <circle cx="415.3247423475913" cy="630.5877317640623" r="12.039536688851136" fill="#8eabb7"></circle> <circle cx="-13.326586159840247" cy="119.50690061686265" r="66.47663660905651" fill="#8eabb7"></circle> <circle cx="242.67341384015975" cy="119.50690061686265" r="66.47663660905651" fill="#8eabb7"></circle> <circle cx="498.67341384015975" cy="119.50690061686265" r="66.47663660905651" fill="#8eabb7"></circle> <circle cx="-13.326586159840247" cy="375.50690061686265" r="66.47663660905651" fill="#8eabb7"></circle> <circle cx="242.67341384015975" cy="375.50690061686265" r="66.47663660905651" fill="#8eabb7"></circle> <circle cx="498.67341384015975" cy="375.50690061686265" r="66.47663660905651" fill="#8eabb7"></circle> <circle cx="-13.326586159840247" cy="631.5069006168626" r="66.47663660905651" fill="#8eabb7"></circle> <circle cx="242.67341384015975" cy="631.5069006168626" r="66.47663660905651" fill="#8eabb7"></circle> <circle cx="498.67341384015975" cy="631.5069006168626" r="66.47663660905651" fill="#8eabb7"></circle> <circle cx="-32.48299304482225" cy="-31.306613998555235" r="34.44623288502579" fill="#8eabb7"></circle> <circle cx="223.51700695517775" cy="-31.306613998555235" r="34.44623288502579" fill="#8eabb7"></circle> <circle cx="479.51700695517775" cy="-31.306613998555235" r="34.44623288502579" fill="#8eabb7"></circle> <circle cx="-32.48299304482225" cy="224.69338600144476" r="34.44623288502579" fill="#8eabb7"></circle> <circle cx="223.51700695517775" cy="224.69338600144476" r="34.44623288502579" fill="#8eabb7"></circle> <circle cx="479.51700695517775" cy="224.69338600144476" r="34.44623288502579" fill="#8eabb7"></circle> <circle cx="-32.48299304482225" cy="480.69338600144476" r="34.44623288502579" fill="#8eabb7"></circle> <circle cx="223.51700695517775" cy="480.69338600144476" r="34.44623288502579" fill="#8eabb7"></circle> <circle cx="479.51700695517775" cy="480.69338600144476" r="34.44623288502579" fill="#8eabb7"></circle> <circle cx="-32.48299304482225" cy="736.6933860014448" r="34.44623288502579" fill="#8eabb7"></circle> <circle cx="223.51700695517775" cy="736.6933860014448" r="34.44623288502579" fill="#8eabb7"></circle> <circle cx="479.51700695517775" cy="736.6933860014448" r="34.44623288502579" fill="#8eabb7"></circle> 
  <animateTransform attributeName="transform" type="translate" dur="16.666666666666668s" repeatCount="indefinite" keyTimes="0;1" values="0 0;0 -256"></animateTransform>
</g><g>
  <circle cx="-121.0299465438053" cy="-1.2881546724997293" r="20.820796168939808" fill="#1e3264"></circle> <circle cx="134.9700534561947" cy="-1.2881546724997293" r="20.820796168939808" fill="#1e3264"></circle> <circle cx="390.9700534561947" cy="-1.2881546724997293" r="20.820796168939808" fill="#1e3264"></circle> <circle cx="-121.0299465438053" cy="254.71184532750027" r="20.820796168939808" fill="#1e3264"></circle> <circle cx="134.9700534561947" cy="254.71184532750027" r="20.820796168939808" fill="#1e3264"></circle> <circle cx="390.9700534561947" cy="254.71184532750027" r="20.820796168939808" fill="#1e3264"></circle> <circle cx="-121.0299465438053" cy="510.71184532750027" r="20.820796168939808" fill="#1e3264"></circle> <circle cx="134.9700534561947" cy="510.71184532750027" r="20.820796168939808" fill="#1e3264"></circle> <circle cx="390.9700534561947" cy="510.71184532750027" r="20.820796168939808" fill="#1e3264"></circle> <circle cx="-121.0299465438053" cy="766.7118453275002" r="20.820796168939808" fill="#1e3264"></circle> <circle cx="134.9700534561947" cy="766.7118453275002" r="20.820796168939808" fill="#1e3264"></circle> <circle cx="390.9700534561947" cy="766.7118453275002" r="20.820796168939808" fill="#1e3264"></circle> <circle cx="-230.04423523149745" cy="8.934570492572163" r="30.571413468692047" fill="#1e3264"></circle> <circle cx="25.955764768502547" cy="8.934570492572163" r="30.571413468692047" fill="#1e3264"></circle> <circle cx="281.95576476850255" cy="8.934570492572163" r="30.571413468692047" fill="#1e3264"></circle> <circle cx="-230.04423523149745" cy="264.93457049257216" r="30.571413468692047" fill="#1e3264"></circle> <circle cx="25.955764768502547" cy="264.93457049257216" r="30.571413468692047" fill="#1e3264"></circle> <circle cx="281.95576476850255" cy="264.93457049257216" r="30.571413468692047" fill="#1e3264"></circle> <circle cx="-230.04423523149745" cy="520.9345704925722" r="30.571413468692047" fill="#1e3264"></circle> <circle cx="25.955764768502547" cy="520.9345704925722" r="30.571413468692047" fill="#1e3264"></circle> <circle cx="281.95576476850255" cy="520.9345704925722" r="30.571413468692047" fill="#1e3264"></circle> <circle cx="-0.8272560947989973" cy="12.509918677037717" r="54.086748358985226" fill="#1e3264"></circle> <circle cx="255.172743905201" cy="12.509918677037717" r="54.086748358985226" fill="#1e3264"></circle> <circle cx="511.172743905201" cy="12.509918677037717" r="54.086748358985226" fill="#1e3264"></circle> <circle cx="-0.8272560947989973" cy="268.5099186770377" r="54.086748358985226" fill="#1e3264"></circle> <circle cx="255.172743905201" cy="268.5099186770377" r="54.086748358985226" fill="#1e3264"></circle> <circle cx="511.172743905201" cy="268.5099186770377" r="54.086748358985226" fill="#1e3264"></circle> <circle cx="-0.8272560947989973" cy="524.5099186770377" r="54.086748358985226" fill="#1e3264"></circle> <circle cx="255.172743905201" cy="524.5099186770377" r="54.086748358985226" fill="#1e3264"></circle> <circle cx="511.172743905201" cy="524.5099186770377" r="54.086748358985226" fill="#1e3264"></circle> 
  <animateTransform attributeName="transform" type="translate" dur="11.11111111111111s" repeatCount="indefinite" keyTimes="0;1" values="0 0;0 -256"></animateTransform>
</g></g></g>
  </pattern>
</defs>
<rect x="0" y="0" width="1084" height="322" fill="url(#pid-0.11966168867424565)"></rect>
</svg>