<svg width="64" height="65" viewBox="0 0 64 65" fill="none" xmlns="http://www.w3.org/2000/svg">
<rect x="0.266667" y="0.766667" width="63.4667" height="63.4667" rx="14.1333" fill="url(#paint0_linear_20_9494)" stroke="url(#paint1_linear_20_9494)" stroke-width="0.533333"/>
<path fill-rule="evenodd" clip-rule="evenodd" d="M57.5999 32.4999C57.5999 46.6384 46.1384 58.0999 31.9999 58.0999C17.8614 58.0999 6.3999 46.6384 6.3999 32.4999C6.3999 18.3614 17.8614 6.8999 31.9999 6.8999C46.1384 6.8999 57.5999 18.3614 57.5999 32.4999ZM10.8645 32.4999C10.8645 44.1726 20.3272 53.6353 31.9999 53.6353C42.5848 53.6353 51.3524 45.8542 52.8946 35.6999H48.764C48.4864 37.1544 48.0188 38.5762 47.3657 39.9274C45.684 43.4065 42.8714 46.2118 39.388 47.8846C35.9047 49.5574 31.9568 49.9985 28.1901 49.1359C24.4235 48.2733 21.061 46.1579 18.6529 43.1359C16.2447 40.1139 14.9334 36.3641 14.9334 32.4999V31.4332H17.0665H17.0667H44.5081C44.4595 30.8624 44.3715 30.293 44.2439 29.729C43.6165 26.9568 42.0669 24.4795 39.8486 22.7025C37.6303 20.9254 34.8746 19.9538 32.0323 19.9465C29.19 19.9392 26.4294 20.8966 24.2019 22.6622L21.3984 19.1254C24.4266 16.7251 28.1798 15.4234 32.0439 15.4333C35.9081 15.4432 39.6545 16.7642 42.6703 19.1801C45.6861 21.5961 47.7928 24.9639 48.6457 28.7328C48.8479 29.6258 48.9767 30.5288 49.0334 31.4332H53.1088C52.5532 20.2561 43.3149 11.3645 31.9999 11.3645C20.3272 11.3645 10.8645 20.8272 10.8645 32.4999ZM44.1388 35.6999H19.8612C20.3027 37.3743 21.0888 38.9508 22.1825 40.3233C23.9538 42.5461 26.4271 44.1021 29.1976 44.7366C31.9682 45.3711 34.8721 45.0466 37.4343 43.8162C39.9965 42.5858 42.0653 40.5223 43.3023 37.9633C43.6552 37.2331 43.9345 36.475 44.1388 35.6999Z" fill="url(#paint2_radial_20_9494)"/>
<defs>
<linearGradient id="paint0_linear_20_9494" x1="32" y1="0.5" x2="32" y2="64.5" gradientUnits="userSpaceOnUse">
<stop stop-color="white"/>
<stop offset="1" stop-color="#E5E5E5"/>
</linearGradient>
<linearGradient id="paint1_linear_20_9494" x1="32" y1="0.5" x2="32" y2="64.5" gradientUnits="userSpaceOnUse">
<stop stop-color="#F0EFEF"/>
<stop offset="1" stop-color="#D6D6D6"/>
</linearGradient>
<radialGradient id="paint2_radial_20_9494" cx="0" cy="0" r="1" gradientUnits="userSpaceOnUse" gradientTransform="translate(23.4666 23.9666) rotate(75.9638) scale(35.1838)">
<stop stop-color="#555564"/>
<stop offset="0.605" stop-color="#4F4F4F"/>
<stop offset="1" stop-color="#030306"/>
</radialGradient>
</defs>
</svg>
