<svg width="48" height="48" viewBox="0 0 48 48" fill="none" xmlns="http://www.w3.org/2000/svg">
<path fill-rule="evenodd" clip-rule="evenodd" d="M48 24C48 37.2548 37.2548 48 24 48C10.7452 48 0 37.2548 0 24C0 10.7452 10.7452 0 24 0C37.2548 0 48 10.7452 48 24ZM4.1856 24C4.1856 34.9432 13.0568 43.8144 24 43.8144C33.9234 43.8144 42.1429 36.5196 43.5888 27H39.7162C39.456 28.3636 39.0176 29.6965 38.4053 30.9633C36.8287 34.2249 34.1919 36.8549 30.9263 38.4231C27.6606 39.9914 23.9595 40.4049 20.4282 39.5962C16.897 38.7875 13.7447 36.8044 11.487 33.9713C9.22939 31.1381 8 27.6227 8 24V23H10H35.7263C35.6807 22.4648 35.5983 21.931 35.4786 21.4023C34.8904 18.8033 33.4377 16.4809 31.358 14.8149C29.2784 13.1489 26.6949 12.238 24.0303 12.2312C21.3656 12.2243 18.7775 13.1219 16.6893 14.7772L14.061 11.4614C16.8999 9.21107 20.4185 7.99074 24.0411 8.00005C27.6638 8.00937 31.1761 9.24778 34.0034 11.5127C36.8307 13.7776 38.8057 16.935 39.6054 20.4683C39.7948 21.3055 39.9157 22.1521 39.9687 23H43.7896C43.2688 12.5214 34.6078 4.1856 24 4.1856C13.0568 4.1856 4.1856 13.0568 4.1856 24ZM35.3801 27H12.6199C13.0337 28.5697 13.7707 30.0477 14.796 31.3344C16.4567 33.4183 18.7753 34.877 21.3728 35.4719C23.9702 36.0667 26.6926 35.7625 29.0946 34.609C31.4967 33.4555 33.4362 31.521 34.5959 29.1219C34.9268 28.4374 35.1886 27.7267 35.3801 27Z" fill="url(#paint0_radial_54_2860)"/>
<defs>
<radialGradient id="paint0_radial_54_2860" cx="0" cy="0" r="1" gradientUnits="userSpaceOnUse" gradientTransform="translate(16 16) rotate(75.9638) scale(32.9848)">
<stop stop-color="#555564"/>
<stop offset="0.605" stop-color="#4F4F4F"/>
<stop offset="1" stop-color="#030306"/>
</radialGradient>
</defs>
</svg>
